{
  "accessors": [
    {
      "bufferView": 2,
      "componentType": 5126,
      "count": 5810,
      "max": [
        0.9646419882774353,
        0.41885200142860413,
        0.3516089916229248
      ],
      "min": [
        -0.9646419882774353,
        -0.41885200142860413,
        -0.3516089916229248
      ],
      "type": "VEC3"
    },
    {
      "bufferView": 2,
      "byteOffset": 69720,
      "componentType": 5126,
      "count": 5810,
      "max": [
        1,
        1,
        0.99999946355819702
      ],
      "min": [
        -1,
        -1,
        -0.99999946355819702
      ],
      "type": "VEC3"
    },
    {
      "bufferView": 3,
      "componentType": 5126,
      "count": 5810,
      "max": [
        1,
        1,
        0.9999924898147583,
        1
      ],
      "min": [
        -1,
        -0.99999856948852539,
        -1,
        -1
      ],
      "type": "VEC4"
    },
    {
      "bufferView": 1,
      "componentType": 5126,
      "count": 5810,
      "max": [
        0.99168300628662109,
        0.9989359974861145
      ],
      "min": [
        0.002335109980776906,
        0.002820849884301424
      ],
      "type": "VEC2"
    },
    {
      "bufferView": 0,
      "componentType": 5125,
      "count": 23004,
      "max": [
        5809
      ],
      "min": [
        0
      ],
      "type": "SCALAR"
    },
    {
      "bufferView": 2,
      "byteOffset": 139440,
      "componentType": 5126,
      "count": 3293,
      "max": [
        1,
        0.41740399599075317,
        0.50219601392745972
      ],
      "min": [
        -1,
        -0.37333899736404419,
        -0.50219601392745972
      ],
      "type": "VEC3"
    },
    {
      "bufferView": 2,
      "byteOffset": 178956,
      "componentType": 5126,
      "count": 3293,
      "max": [
        1,
        1,
        0.99999511241912842
      ],
      "min": [
        -1,
        -1,
        -0.99999511241912842
      ],
      "type": "VEC3"
    },
    {
      "bufferView": 3,
      "byteOffset": 92960,
      "componentType": 5126,
      "count": 3293,
      "max": [
        1,
        0.99999988079071045,
        0.9999997615814209,
        1
      ],
      "min": [
        -0.99999189376831055,
        -0.99999803304672241,
        -0.99999970197677612,
        -1
      ],
      "type": "VEC4"
    },
    {
      "bufferView": 1,
      "byteOffset": 46480,
      "componentType": 5126,
      "count": 3293,
      "max": [
        0.99187397956848145,
        0.99131900072097778
      ],
      "min": [
        0.0050548301078379154,
        0.0041517601348459721
      ],
      "type": "VEC2"
    },
    {
      "bufferView": 0,
      "byteOffset": 92016,
      "componentType": 5125,
      "count": 15240,
      "max": [
        3292
      ],
      "min": [
        0
      ],
      "type": "SCALAR"
    }
  ],
  "asset": {
    "extras": {
      "author": "Adrian Dierigl (https://sketchfab.com/adriandierigl)",
      "license": "CC-BY-4.0 (http://creativecommons.org/licenses/by/4.0/)",
      "source": "https://sketchfab.com/3d-models/rebel-hideout-part-2-main-operation-table-e716a56134cf459b897cc9107b14125f",
      "title": "Rebel Hideout Part 2: Main Operation Table"
    },
    "generator": "Sketchfab-6.96.0",
    "version": "2.0"
  },
  "bufferViews": [
    {
      "buffer": 0,
      "byteLength": 152976,
      "byteOffset": 0,
      "name": "floatBufferViews",
      "target": 34963
    },
    {
      "buffer": 0,
      "byteLength": 72824,
      "byteOffset": 152976,
      "byteStride": 8,
      "name": "floatBufferViews",
      "target": 34962
    },
    {
      "buffer": 0,
      "byteLength": 218472,
      "byteOffset": 225800,
      "byteStride": 12,
      "name": "floatBufferViews",
      "target": 34962
    },
    {
      "buffer": 0,
      "byteLength": 145648,
      "byteOffset": 444272,
      "byteStride": 16,
      "name": "floatBufferViews",
      "target": 34962
    }
  ],
  "buffers": [
    {
      "byteLength": 589920,
      "uri": "scene.bin"
    }
  ],
  "images": [
    {
      "uri": "textures/1001_baseColor.jpeg"
    },
    {
      "uri": "textures/1001_metallicRoughness.png"
    },
    {
      "uri": "textures/1001_normal.png"
    },
    {
      "uri": "textures/1002_baseColor.jpeg"
    },
    {
      "uri": "textures/1002_metallicRoughness.png"
    },
    {
      "uri": "textures/1002_normal.png"
    }
  ],
  "materials": [
    {
      "doubleSided": true,
      "name": "1001",
      "normalTexture": {
        "index": 2,
        "scale": 1,
        "texCoord": 0
      },
      "occlusionTexture": {
        "index": 1,
        "strength": 1,
        "texCoord": 0
      },
      "pbrMetallicRoughness": {
        "baseColorFactor": [
          1,
          1,
          1,
          1
        ],
        "baseColorTexture": {
          "index": 0,
          "texCoord": 0
        },
        "metallicFactor": 1,
        "metallicRoughnessTexture": {
          "index": 1,
          "texCoord": 0
        },
        "roughnessFactor": 1
      }
    },
    {
      "doubleSided": true,
      "name": "1002",
      "normalTexture": {
        "index": 5,
        "scale": 1,
        "texCoord": 0
      },
      "occlusionTexture": {
        "index": 4,
        "strength": 1,
        "texCoord": 0
      },
      "pbrMetallicRoughness": {
        "baseColorFactor": [
          1,
          1,
          1,
          1
        ],
        "baseColorTexture": {
          "index": 3,
          "texCoord": 0
        },
        "metallicFactor": 1,
        "metallicRoughnessTexture": {
          "index": 4,
          "texCoord": 0
        },
        "roughnessFactor": 1
      }
    }
  ],
  "meshes": [
    {
      "name": "defaultMaterial",
      "primitives": [
        {
          "attributes": {
            "NORMAL": 1,
            "POSITION": 0,
            "TANGENT": 2,
            "TEXCOORD_0": 3
          },
          "indices": 4,
          "material": 0,
          "mode": 4
        }
      ]
    },
    {
      "name": "defaultMaterial",
      "primitives": [
        {
          "attributes": {
            "NORMAL": 6,
            "POSITION": 5,
            "TANGENT": 7,
            "TEXCOORD_0": 8
          },
          "indices": 9,
          "material": 1,
          "mode": 4
        }
      ]
    }
  ],
  "nodes": [
    {
      "children": [
        1
      ],
      "name": "RootNode (gltf orientation matrix)",
      "rotation": [
        -0.70710678118654746,
        -0,
        -0,
        0.70710678118654757
      ]
    },
    {
      "children": [
        2
      ],
      "name": "RootNode (model correction matrix)"
    },
    {
      "children": [
        3
      ],
      "matrix": [
        1,
        0,
        0,
        0,
        0,
        -4.3711390063094768e-08,
        0.999999999999999,
        0,
        0,
        -0.999999999999999,
        -4.3711390063094768e-08,
        0,
        0,
        0,
        0,
        1
      ],
      "name": "Collada visual scene group"
    },
    {
      "children": [
        4,
        5
      ],
      "name": "table_low"
    },
    {
      "mesh": 0,
      "name": "defaultMaterial"
    },
    {
      "mesh": 1,
      "name": "defaultMaterial"
    }
  ],
  "samplers": [
    {
      "magFilter": 9729,
      "minFilter": 9987,
      "wrapS": 10497,
      "wrapT": 10497
    }
  ],
  "scene": 0,
  "scenes": [
    {
      "name": "OSG_Scene",
      "nodes": [
        0
      ]
    }
  ],
  "textures": [
    {
      "sampler": 0,
      "source": 0
    },
    {
      "sampler": 0,
      "source": 1
    },
    {
      "sampler": 0,
      "source": 2
    },
    {
      "sampler": 0,
      "source": 3
    },
    {
      "sampler": 0,
      "source": 4
    },
    {
      "sampler": 0,
      "source": 5
    }
  ]
}

